<?xml version="1.0" encoding="UTF-8"?>
<svg version="1.1" xmlns="http://www.w3.org/2000/svg" width="500" height="500">
<path d="M0 0 C165 0 330 0 500 0 C500 165 500 330 500 500 C335 500 170 500 0 500 C0 335 0 170 0 0 Z " fill="#000000" transform="translate(0,0)"/>
<path d="M0 0 C1.47240117 0.50595128 2.9450672 1.01113226 4.41796875 1.515625 C5.16981445 1.7739209 5.92166016 2.0322168 6.69628906 2.29833984 C15.52941958 5.25800738 24.55541825 7.27685795 33.67236328 9.15185547 C35.59023543 9.54728081 37.50305602 9.96715668 39.4140625 10.39453125 C46.8283237 11.83311924 54.32563801 11.9057122 61.85546875 12.015625 C62.91088867 12.04180908 63.96630859 12.06799316 65.05371094 12.0949707 C80.07991398 12.12595966 94.13065162 6.79440426 108.16796875 1.953125 C110.35153423 1.20243359 112.53571551 0.45379073 114.72189331 -0.28926086 C116.06357004 -0.74543804 117.40380257 -1.20589573 118.74221802 -1.67155457 C132.43105008 -6.33299705 149.42902511 -6.08050344 163.04296875 -1.359375 C163.93628906 -1.0809375 164.82960938 -0.8025 165.75 -0.515625 C192.12861751 8.23950985 208.89172613 28.20425195 221.10546875 52.265625 C227.96695838 66.16261519 233.55822536 80.81568692 238.04296875 95.640625 C238.41905273 96.87619141 238.41905273 96.87619141 238.80273438 98.13671875 C248.3832642 130.01084423 256.21999916 162.7473721 256.35546875 196.140625 C256.36126953 197.45256836 256.36707031 198.76451172 256.37304688 200.11621094 C256.22644999 219.4718869 253.86774372 239.93730249 240.09765625 254.73046875 C230.64188363 263.50023433 221.21312608 265.2221169 208.65234375 264.97265625 C202.3638334 264.66181247 197.48656234 262.74500367 192.04296875 259.640625 C190.92535156 259.00898438 189.80773437 258.37734375 188.65625 257.7265625 C179.74996678 252.44735049 172.39456951 245.8730464 165.04296875 238.640625 C163.91429325 237.55054228 162.78538479 236.46070072 161.65625 235.37109375 C154.27010838 228.17693848 147.71110292 220.56066788 141.32421875 212.4609375 C129.30547286 197.89104272 111.1780771 190.97261481 93.04296875 187.640625 C92.08205322 187.46257324 91.1211377 187.28452148 90.13110352 187.10107422 C80.67327316 185.54376911 71.39690581 185.33304758 61.83081055 185.37988281 C59.24438812 185.3905675 56.65866664 185.3799441 54.07226562 185.3671875 C39.66461764 185.35329482 25.3667444 186.10465904 11.48046875 190.265625 C10.60479248 190.52359863 9.72911621 190.78157227 8.8269043 191.04736328 C-7.70308178 196.14763203 -20.8458313 204.02540671 -31.62890625 217.73046875 C-35.8009692 222.94554743 -40.35689496 227.80495708 -44.95703125 232.640625 C-45.77977539 233.5063916 -45.77977539 233.5063916 -46.61914062 234.38964844 C-59.20281996 247.53497222 -75.84704777 263.93466391 -95.1640625 264.9765625 C-96.69898501 265.00634754 -98.23432312 265.01882735 -99.76953125 265.015625 C-100.56907227 265.01401367 -101.36861328 265.01240234 -102.19238281 265.01074219 C-108.21757009 264.88537109 -112.82987987 263.94734959 -117.95703125 260.640625 C-118.96765625 260.08375 -119.97828125 259.526875 -121.01953125 258.953125 C-128.83165598 252.80315447 -133.43664608 245.87155862 -136.95703125 236.640625 C-137.25351563 235.88910156 -137.55 235.13757813 -137.85546875 234.36328125 C-142.02820242 222.9399064 -142.39806584 210.97684957 -142.39453125 198.953125 C-142.39559875 198.17527649 -142.39666626 197.39742798 -142.39776611 196.5960083 C-142.34713963 170.71930264 -137.34717386 145.6548763 -130.95703125 120.640625 C-130.76705566 119.87459961 -130.57708008 119.10857422 -130.38134766 118.31933594 C-122.08309339 85.04983727 -110.93626755 49.77471007 -87.95703125 23.640625 C-87.16425781 22.65191406 -86.37148437 21.66320312 -85.5546875 20.64453125 C-64.8585612 -3.28828247 -28.99894486 -9.98020098 0 0 Z " fill="#FEFEFE" transform="translate(192.95703125,116.359375)"/>
<path d="M0 0 C4.87990548 1.72946842 7.72911152 4.36477256 10 9 C10.34057617 11.67895508 10.34057617 11.67895508 10.29296875 14.51953125 C10.2784668 16.0519043 10.2784668 16.0519043 10.26367188 17.61523438 C10.23853516 18.67033203 10.21339844 19.72542969 10.1875 20.8125 C10.16719727 22.42415039 10.16719727 22.42415039 10.14648438 24.06835938 C10.11122577 26.71275455 10.06194366 29.35611748 10 32 C10.6705542 31.98428955 11.3411084 31.9685791 12.03198242 31.95239258 C15.0837351 31.88985342 18.13535268 31.85094937 21.1875 31.8125 C22.24259766 31.78736328 23.29769531 31.76222656 24.38476562 31.73632812 C25.91713867 31.72182617 25.91713867 31.72182617 27.48046875 31.70703125 C28.41785889 31.6913208 29.35524902 31.67561035 30.32104492 31.65942383 C34.78611097 32.2270687 37.33133342 34.23846307 40.25 37.5625 C43.14463986 41.59431981 43.41685149 43.99778207 43 49 C40.42422676 53.61862787 38.0807921 57.30640263 33 59 C31.22686149 59.08209792 29.45079225 59.10746294 27.67578125 59.09765625 C26.64775391 59.09443359 25.61972656 59.09121094 24.56054688 59.08789062 C23.48869141 59.07951172 22.41683594 59.07113281 21.3125 59.0625 C19.68731445 59.05573242 19.68731445 59.05573242 18.02929688 59.04882812 C15.35280915 59.03703743 12.67643223 59.02058063 10 59 C10.02094727 59.66531738 10.04189453 60.33063477 10.06347656 61.01611328 C10.14700609 64.05225302 10.19877603 67.08815043 10.25 70.125 C10.28351563 71.17171875 10.31703125 72.2184375 10.3515625 73.296875 C10.43074378 79.55219622 10.22477288 83.26077139 6 88 C2.22360077 91.33211697 -1.61487553 91.62331052 -6.48828125 91.4921875 C-10.66521636 90.67369011 -13.38908238 88.28161205 -16 85 C-17.01973129 81.94080612 -17.11533602 79.87581975 -17.09765625 76.67578125 C-17.09443359 75.64775391 -17.09121094 74.61972656 -17.08789062 73.56054688 C-17.07951172 72.48869141 -17.07113281 71.41683594 -17.0625 70.3125 C-17.05798828 69.22904297 -17.05347656 68.14558594 -17.04882812 67.02929688 C-17.03703743 64.35280915 -17.02058063 61.67643223 -17 59 C-17.66531738 59.02094727 -18.33063477 59.04189453 -19.01611328 59.06347656 C-22.05225302 59.14700609 -25.08815043 59.19877603 -28.125 59.25 C-29.17171875 59.28351563 -30.2184375 59.31703125 -31.296875 59.3515625 C-37.53360101 59.4305084 -41.30304836 59.26433767 -46 55 C-48.61754723 51.16093073 -49.60177588 47.71376163 -49.421875 43.02734375 C-48.66239432 39.37761715 -46.64452609 36.5749333 -44 34 C-40.77410842 32.0170466 -38.33542797 31.76293969 -34.578125 31.8046875 C-33.55332031 31.81113281 -32.52851562 31.81757813 -31.47265625 31.82421875 C-30.40917969 31.84097656 -29.34570312 31.85773438 -28.25 31.875 C-26.63158203 31.88853516 -26.63158203 31.88853516 -24.98046875 31.90234375 C-22.32008722 31.92588695 -19.66015664 31.95877201 -17 32 C-17.02618408 31.30438965 -17.05236816 30.6087793 -17.0793457 29.89208984 C-17.18370949 26.71995915 -17.2484506 23.54819022 -17.3125 20.375 C-17.35439453 19.28058594 -17.39628906 18.18617188 -17.43945312 17.05859375 C-17.57760043 7.94087192 -17.57760043 7.94087192 -14.66796875 4.3515625 C-9.66566365 -0.05749704 -6.48708865 -0.87284748 0 0 Z " fill="#010101" transform="translate(157,183)"/>
<path d="M0 0 C5.05618505 5.45102814 7.39463033 10.1282715 7.2734375 17.59375 C6.61605087 23.37875233 3.82206845 27.5339481 -0.4375 31.375 C-5.05995996 34.97895183 -8.88349562 36.50078733 -14.88671875 36.30859375 C-21.36506424 35.36258766 -25.87449191 31.76967342 -29.8125 26.71875 C-33.02916171 22.06305541 -33.69248623 17.59315798 -33 12 C-31.0503233 6.24845372 -28.53924582 1.82304828 -23.5625 -1.75 C-15.7127947 -5.57912453 -7.02573344 -5.22946344 0 0 Z " fill="#030303" transform="translate(341,230)"/>
<path d="M0 0 C4.40123673 3.14120525 7.48672607 6.83829496 9.625 11.8125 C10.60818902 18.53476909 9.68901121 24.31136018 5.625 29.8125 C1.0031159 34.53732139 -2.30116466 36.96388877 -9 37.125 C-15.49466318 37.05499764 -20.10815839 35.86210918 -24.90234375 31.38671875 C-29.39073939 26.35190973 -30.87750804 21.76443541 -30.6796875 15.1484375 C-29.88761318 9.07586769 -27.13953843 5.10840698 -22.375 1.375 C-15.87550965 -3.28381437 -6.97693278 -4.16786808 0 0 Z " fill="#030303" transform="translate(375.375,191.1875)"/>
<path d="M0 0 C1.12138618 0.01061211 1.12138618 0.01061211 2.26542664 0.0214386 C4.64023277 0.0493048 7.01263226 0.11201993 9.38671875 0.17578125 C11.00191893 0.20087457 12.61715629 0.22368594 14.23242188 0.24414062 C18.18060694 0.29910478 22.12700564 0.38531598 26.07421875 0.48828125 C26.07421875 3.12828125 26.07421875 5.76828125 26.07421875 8.48828125 C15.84421875 8.48828125 5.61421875 8.48828125 -4.92578125 8.48828125 C-4.92578125 16.07828125 -4.92578125 23.66828125 -4.92578125 31.48828125 C2.66421875 31.48828125 10.25421875 31.48828125 18.07421875 31.48828125 C18.07421875 28.84828125 18.07421875 26.20828125 18.07421875 23.48828125 C13.12421875 23.48828125 8.17421875 23.48828125 3.07421875 23.48828125 C3.07421875 20.84828125 3.07421875 18.20828125 3.07421875 15.48828125 C10.66421875 15.48828125 18.25421875 15.48828125 26.07421875 15.48828125 C26.22890625 20.03609375 26.22890625 20.03609375 26.38671875 24.67578125 C26.43223877 25.62219482 26.47775879 26.5686084 26.5246582 27.54370117 C26.54338989 28.68222534 26.54338989 28.68222534 26.5625 29.84375 C26.58868408 30.61356201 26.61486816 31.38337402 26.6418457 32.17651367 C25.75970101 35.76921391 23.94983951 37.24476665 21.07421875 39.48828125 C17.92382812 40.13525391 17.92382812 40.13525391 14.41796875 40.15234375 C12.51337891 40.16201172 12.51337891 40.16201172 10.5703125 40.171875 C9.25160156 40.15253906 7.93289062 40.13320313 6.57421875 40.11328125 C4.59615234 40.14228516 4.59615234 40.14228516 2.578125 40.171875 C1.30839844 40.16542969 0.03867188 40.15898437 -1.26953125 40.15234375 C-2.42646484 40.1467041 -3.58339844 40.14106445 -4.77539062 40.13525391 C-8.94629237 39.27870635 -10.41035164 37.89014987 -12.92578125 34.48828125 C-13.57275391 31.33789062 -13.57275391 31.33789062 -13.58984375 27.83203125 C-13.59628906 26.56230469 -13.60273438 25.29257812 -13.609375 23.984375 C-13.59003906 22.66566406 -13.57070312 21.34695313 -13.55078125 19.98828125 C-13.57978516 18.01021484 -13.57978516 18.01021484 -13.609375 15.9921875 C-13.60292969 14.72246094 -13.59648437 13.45273437 -13.58984375 12.14453125 C-13.5842041 10.98759766 -13.57856445 9.83066406 -13.57275391 8.63867188 C-12.01605124 1.05841102 -6.96378803 -0.2503273 0 0 Z " fill="#F6F6F6" transform="translate(221.92578125,338.51171875)"/>
<path d="M0 0 C4.75047352 -0.12391876 9.49999961 -0.21448561 14.25170898 -0.2746582 C15.86678461 -0.29974959 17.48174726 -0.33383126 19.09643555 -0.37719727 C21.42264706 -0.43809286 23.74735359 -0.46626124 26.07421875 -0.48828125 C27.15107185 -0.52699089 27.15107185 -0.52699089 28.24967957 -0.56648254 C32.16900788 -0.56865819 33.84222513 -0.12453373 36.95605469 2.33325195 C39.47561094 5.62053252 39.6440085 7.39580708 39.5625 11.5 C39.56443359 13.15515625 39.56443359 13.15515625 39.56640625 14.84375 C38.87211418 18.71263273 37.78356763 20.24582712 35 23 C32.06738281 23.56762695 32.06738281 23.56762695 28.703125 23.48828125 C27.49785156 23.47216797 26.29257812 23.45605469 25.05078125 23.43945312 C23.79652344 23.39755859 22.54226563 23.35566406 21.25 23.3125 C19.34541016 23.27866211 19.34541016 23.27866211 17.40234375 23.24414062 C14.26704227 23.18520639 11.13411405 23.10297079 8 23 C8 25.64 8 28.28 8 31 C18.23 31 28.46 31 39 31 C39 33.64 39 36.28 39 39 C26.13 39 13.26 39 0 39 C0 20 0 20 4 16 C6.93261719 15.54589844 6.93261719 15.54589844 10.296875 15.609375 C12.10478516 15.62871094 12.10478516 15.62871094 13.94921875 15.6484375 C15.20347656 15.68195313 16.45773437 15.71546875 17.75 15.75 C19.01972656 15.76804687 20.28945313 15.78609375 21.59765625 15.8046875 C24.73253077 15.85182847 27.8658856 15.91762336 31 16 C31 13.36 31 10.72 31 8 C20.77 8 10.54 8 0 8 C0 5.36 0 2.72 0 0 Z " fill="#FAFAFA" transform="translate(252,339)"/>
<path d="M0 0 C1.12138618 0.01061211 1.12138618 0.01061211 2.26542664 0.0214386 C4.64023277 0.0493048 7.01263226 0.11201993 9.38671875 0.17578125 C11.00191893 0.20087457 12.61715629 0.22368594 14.23242188 0.24414062 C18.18060694 0.29910478 22.12700564 0.38531598 26.07421875 0.48828125 C26.07421875 3.12828125 26.07421875 5.76828125 26.07421875 8.48828125 C15.84421875 8.48828125 5.61421875 8.48828125 -4.92578125 8.48828125 C-4.92578125 10.79828125 -4.92578125 13.10828125 -4.92578125 15.48828125 C5.30421875 15.48828125 15.53421875 15.48828125 26.07421875 15.48828125 C26.07421875 18.12828125 26.07421875 20.76828125 26.07421875 23.48828125 C15.84421875 23.48828125 5.61421875 23.48828125 -4.92578125 23.48828125 C-4.92578125 28.76828125 -4.92578125 34.04828125 -4.92578125 39.48828125 C-7.56578125 39.48828125 -10.20578125 39.48828125 -12.92578125 39.48828125 C-13.04970001 34.73780773 -13.14026686 29.98828164 -13.20043945 25.23657227 C-13.22553084 23.62149664 -13.25961251 22.00653399 -13.30297852 20.3918457 C-13.36387411 18.06563419 -13.39204249 15.74092766 -13.4140625 13.4140625 C-13.43986893 12.69616043 -13.46567535 11.97825836 -13.49226379 11.23860168 C-13.49432568 7.52420289 -13.0069231 5.60648982 -10.890625 2.5234375 C-7.19106189 -0.0160518 -4.32855175 -0.15559846 0 0 Z " fill="#F5F5F5" transform="translate(307.92578125,338.51171875)"/>
<path d="M0 0 C2.64 0 5.28 0 8 0 C7.9779248 0.589021 7.95584961 1.17804199 7.93310547 1.78491211 C7.07126978 13.7531346 7.07126978 13.7531346 11.29296875 24.3984375 C13.76657542 26.55455727 16.15408912 28.37302736 19 30 C20.27310312 29.06558465 21.543388 28.12732889 22.8125 27.1875 C23.52019531 26.66542969 24.22789062 26.14335937 24.95703125 25.60546875 C28.71934194 22.86402665 28.71934194 22.86402665 30.43237305 18.73168945 C30.45855713 17.86761475 30.48474121 17.00354004 30.51171875 16.11328125 C30.54716797 15.17548828 30.58261719 14.23769531 30.61914062 13.27148438 C30.64169922 12.29501953 30.66425781 11.31855469 30.6875 10.3125 C30.72166016 9.32443359 30.75582031 8.33636719 30.79101562 7.31835938 C30.87350538 4.87901947 30.94265068 2.44003937 31 0 C33.64 0 36.28 0 39 0 C40.90528512 23.31642627 40.90528512 23.31642627 36.76171875 28.74609375 C33.94962584 31.2461547 31.26716879 33.14462347 28 35 C27.03320312 35.75667969 26.06640625 36.51335937 25.0703125 37.29296875 C22 39 22 39 18.62109375 39.0625 C11.02535397 36.83376082 3.90939293 32.02820101 0 25 C-1.81548208 16.8133757 -0.94192145 8.26475696 0 0 Z " fill="#F7F7F7" transform="translate(166,339)"/>
</svg>
